<?xml version="1.0" encoding="UTF-8" standalone="no"?>
<svg width="47px" height="53px" viewBox="0 0 47 53" version="1.1" xmlns="http://www.w3.org/2000/svg" xmlns:xlink="http://www.w3.org/1999/xlink" xmlns:sketch="http://www.bohemiancoding.com/sketch/ns">
    <!-- Generator: Sketch 3.3.2 (12043) - http://www.bohemiancoding.com/sketch -->
    <title>SYMBOL Copy</title>
    <desc>Created with Sketch.</desc>
    <defs></defs>
    <g id="Page-1" stroke="none" stroke-width="1" fill="none" fill-rule="evenodd" sketch:type="MSPage">
        <g id="SYMBOL-Copy" sketch:type="MSLayerGroup" transform="translate(-3.000000, 0.000000)">
            <polygon id="Polygon-1" fill="#FFD511" sketch:type="MSShapeGroup" points="26.5625 0.34375 49.2686036 13.453125 49.2686036 39.671875 26.5625 52.78125 3.85639644 39.671875 3.85639644 13.453125 "></polygon>
            <g id="Triangle-1-+-Triangle-1-Copy-2" transform="translate(12.047253, 10.363750)" fill="#FFFFFF" sketch:type="MSShapeGroup">
                <g id="Path-9-Copy-+-Path-9-Copy-2">
                    <path d="M13.7353167,0.828625167 L13.7353167,5.74240669 L11.028258,8.18262169 C9.42154734,9.63095368 6.20812592,12.5276176 6.20812592,12.5276176 L15.0659389,20.1242176 L12.2368947,22.8037827 L0.55764244,12.5925458 L13.7353167,0.828625167 Z" id="Path-9-Copy"></path>
                    <path d="M13.661864,31.7992571 L13.661864,26.8854756 C13.661864,26.8854756 15.4665697,25.2586656 16.3689226,24.4452606 C17.9756333,22.9969286 21.1890547,20.1002647 21.1890547,20.1002647 L12.3312417,12.5036647 L15.160286,9.82409961 L26.8395382,20.0353364 L13.661864,31.7992571 Z" id="Path-9-Copy-2"></path>
                </g>
            </g>
        </g>
    </g>
</svg>